<?xml version="1.0" standalone="no"?>
<!DOCTYPE svg PUBLIC "-//W3C//DTD SVG 20010904//EN"
 "http://www.w3.org/TR/2001/REC-SVG-20010904/DTD/svg10.dtd">
<svg version="1.0" xmlns="http://www.w3.org/2000/svg"
 width="96.000000pt" height="96.000000pt" viewBox="0 0 96.000000 96.000000"
 preserveAspectRatio="xMidYMid meet">

<g transform="translate(0.000000,96.000000) scale(0.100000,-0.100000)"
fill="#000000" stroke="none">
<path d="M520 894 c-98 -15 -151 -29 -200 -54 -62 -31 -148 -116 -178 -176
-74 -148 -45 -338 72 -460 24 -24 40 -47 37 -51 -3 -3 0 -3 7 1 8 5 12 0 12
-13 0 -16 7 -21 28 -21 15 -1 52 -9 82 -20 67 -23 157 -25 230 -5 80 23 84 23
98 24 6 1 12 8 12 16 0 8 4 15 8 15 21 0 106 101 135 159 40 82 50 207 22 296
-23 72 -78 150 -135 192 -25 19 -63 49 -84 68 -40 35 -66 40 -146 29z m81 -13
c-8 -5 -10 -14 -6 -21 5 -8 4 -11 -3 -6 -5 3 -12 3 -15 -1 -2 -5 -3 -3 -1 3 1
6 -3 17 -9 23 -8 8 -3 11 19 11 20 0 25 -3 15 -9z m-101 -30 c0 -10 7 -24 15
-31 8 -7 15 -22 15 -35 0 -21 -2 -21 -47 -13 -27 5 -72 11 -101 13 -53 4 -54
4 -68 -31 -17 -41 -35 -43 -51 -7 -11 22 -10 28 5 40 32 25 92 53 145 68 72
19 87 18 87 -4z m135 -1 c-3 -5 -11 -10 -16 -10 -6 0 -7 5 -4 10 3 6 11 10 16
10 6 0 7 -4 4 -10z m-64 -49 c-10 -7 -7 -9 12 -8 18 2 22 5 16 13 -13 15 20
29 35 14 7 -7 6 -10 -3 -10 -7 0 -9 -5 -4 -12 4 -7 9 -26 11 -43 1 -16 3 -36
4 -42 1 -7 4 -13 8 -13 4 0 7 -19 8 -42 1 -39 0 -41 -13 -24 -13 17 -14 16 -9
-16 4 -19 1 -60 -6 -91 -13 -65 -7 -86 19 -63 10 9 21 13 24 10 4 -4 4 -52 0
-108 -5 -86 -9 -105 -29 -129 -13 -16 -24 -34 -24 -40 0 -7 -4 -7 -12 1 -8 8
-9 15 -3 20 6 4 11 12 12 17 1 6 5 19 8 30 4 11 -2 6 -13 -12 -16 -23 -26 -30
-41 -26 -12 3 -21 13 -22 22 0 10 -3 8 -10 -7 -11 -28 -29 -20 -29 13 0 13 -5
27 -11 31 -10 6 -6 174 6 254 2 14 4 29 4 34 2 20 51 -39 51 -60 0 -12 7 -29
15 -38 8 -8 15 -19 15 -25 0 -6 5 -11 11 -11 18 0 4 100 -20 147 -15 30 -17
43 -8 52 8 8 8 11 -1 11 -21 0 -25 -28 -8 -61 22 -45 20 -50 -5 -11 -12 17
-26 32 -32 32 -7 0 -5 5 3 10 13 8 13 10 -2 10 -14 0 -15 5 -8 30 5 17 6 30 3
30 -3 0 -1 6 5 13 16 19 22 100 9 116 -9 12 -9 13 1 7 7 -4 12 -2 12 6 0 8 6
6 18 -5 14 -15 15 -19 3 -26z m145 2 c24 -16 44 -31 44 -35 0 -5 -25 -8 -55
-8 -54 0 -55 1 -55 28 0 50 8 51 66 15z m-368 -43 c-7 -11 -16 -20 -20 -20 -5
0 -3 9 4 20 7 11 16 20 20 20 5 0 3 -9 -4 -20z m467 -68 c-3 -7 0 -10 5 -7 5
3 19 -13 30 -36 12 -22 20 -42 18 -43 -21 -13 -157 -52 -165 -48 -6 4 -12 37
-15 73 -3 37 -13 77 -23 92 l-17 26 64 3 c57 3 65 0 86 -22 12 -14 20 -31 17
-38z m-290 41 c-17 -42 -35 -108 -35 -131 0 -19 -4 -23 -17 -16 -10 4 -58 10
-108 13 l-90 6 -11 35 c-9 26 -19 37 -43 44 -56 16 -33 25 52 21 56 -4 76 -2
62 4 -18 9 -18 10 6 10 15 1 42 8 60 16 19 8 56 14 83 15 42 0 47 -2 41 -17z
m-331 -61 c3 -5 -1 -9 -9 -9 -8 0 -15 4 -15 9 0 4 4 8 9 8 6 0 12 -4 15 -8z
m41 -12 c-3 -5 -12 -10 -18 -10 -7 0 -6 4 3 10 19 12 23 12 15 0z m85 -69 c69
-5 132 -11 142 -15 20 -9 27 -33 17 -66 -4 -14 -7 -49 -8 -77 -1 -63 -18 -69
-46 -17 -15 29 -17 39 -7 55 15 23 15 39 2 39 -5 0 -10 -8 -10 -18 0 -10 -7
-27 -15 -38 -15 -18 -15 -18 -13 0 2 10 -6 23 -17 30 -10 6 -26 17 -34 24 -12
12 -12 15 0 23 19 12 46 11 54 -1 3 -5 1 -10 -4 -10 -6 0 -11 -7 -11 -15 0 -8
4 -15 9 -15 5 0 14 7 21 15 18 21 -4 45 -41 45 -19 0 -34 -9 -49 -30 -20 -29
-21 -32 -6 -55 21 -32 11 -59 -18 -49 -11 4 -39 8 -61 9 -22 1 -55 8 -72 16
-30 12 -33 18 -33 54 0 22 5 57 11 79 10 35 13 37 37 31 15 -4 83 -10 152 -14z
m564 -42 c6 -39 4 -43 -31 -75 -44 -38 -53 -41 -54 -16 0 10 -3 12 -6 5 -9
-24 -20 -13 -15 13 9 46 -14 18 -39 -48 -13 -35 -24 -67 -24 -72 0 -9 37 -35
85 -58 14 -7 27 -13 29 -15 2 -1 -8 -18 -23 -38 -24 -31 -33 -35 -70 -35 -51
0 -59 11 -48 73 4 23 8 93 7 155 0 83 3 111 12 108 7 -3 43 6 80 19 37 13 73
24 79 24 6 1 14 -18 18 -40z m-227 -11 c-3 -8 -6 -5 -6 6 -1 11 2 17 5 13 3
-3 4 -12 1 -19z m-322 -58 c3 -5 -1 -10 -9 -10 -9 0 -16 5 -16 10 0 6 4 10 9
10 6 0 13 -4 16 -10z m550 -47 c-9 -62 -40 -133 -58 -133 -8 0 -25 8 -37 18
-19 15 -22 24 -16 48 7 27 90 114 109 114 5 0 6 -21 2 -47z m-515 23 c0 -3 -4
-8 -10 -11 -5 -3 -10 -1 -10 4 0 6 5 11 10 11 6 0 10 -2 10 -4z m-214 -31 c10
-8 39 -15 64 -15 41 -1 87 -20 75 -32 -7 -6 -26 -112 -28 -150 -1 -16 -7 -28
-14 -28 -29 0 -110 135 -127 213 -7 30 1 34 30 12z m232 -2 c-3 -15 14 -43 23
-37 16 10 29 -44 20 -84 -9 -37 -13 -26 -13 33 1 23 -2 19 -11 -17 -7 -26 -18
-53 -24 -60 -7 -6 -13 -17 -13 -22 0 -6 7 -2 15 8 13 17 15 18 15 3 0 -9 4
-17 10 -17 5 0 7 -8 4 -17 -3 -10 -8 -23 -9 -30 -3 -8 -13 -9 -34 -3 -21 6
-31 5 -34 -3 -3 -9 -9 -8 -21 2 -15 13 -19 13 -26 1 -5 -8 -12 -11 -16 -7 -4
4 1 13 11 21 12 9 15 15 7 20 -7 4 -12 12 -12 19 0 6 7 2 15 -9 14 -19 15 -19
21 3 8 27 24 21 25 -10 1 -13 3 -16 5 -7 3 8 -4 33 -15 55 -11 22 -21 33 -21
25 -1 -8 -6 -2 -10 14 -7 21 -5 35 5 50 8 11 15 30 15 41 0 15 2 17 9 6 6 -9
11 -10 15 -2 4 6 4 16 1 21 -4 6 5 10 19 10 14 0 25 -3 24 -7z m374 -58 c-6
-34 -12 -32 -12 6 0 16 4 28 9 25 4 -3 6 -17 3 -31z m-276 -127 c15 -27 14
-28 -9 -28 -30 0 -38 31 -29 105 l6 50 8 -50 c5 -27 15 -62 24 -77z m118 -79
c-3 -6 2 -16 11 -23 17 -12 17 -13 1 -19 -10 -4 -43 -10 -74 -13 -52 -5 -55
-4 -32 8 14 7 26 22 28 33 2 11 8 32 14 48 l11 27 23 -26 c14 -14 22 -30 18
-35z m-108 16 c-5 -28 10 -35 17 -7 4 14 5 14 6 1 0 -9 -6 -22 -14 -29 -10 -9
-15 -9 -15 -1 0 19 -18 12 -25 -10 -6 -19 -12 -20 -47 -15 -49 8 -81 24 -73
37 10 14 55 11 55 -5 0 -16 27 -29 42 -20 5 3 7 17 4 31 -8 31 0 43 30 43 21
0 24 -4 20 -25z m212 -5 c8 0 12 6 8 15 -4 11 2 15 22 15 l27 0 -25 -20 c-29
-23 -73 -26 -89 -7 -16 21 -1 28 23 12 11 -8 27 -15 34 -15z m-38 -30 c0 -5
-2 -10 -4 -10 -3 0 -8 5 -11 10 -3 6 -1 10 4 10 6 0 11 -4 11 -10z"/>
<path d="M580 739 c0 -5 5 -7 10 -4 6 3 10 8 10 11 0 2 -4 4 -10 4 -5 0 -10
-5 -10 -11z"/>
<path d="M531 358 c-1 -16 4 -28 9 -28 12 0 12 8 0 35 -8 18 -9 17 -9 -7z"/>
<path d="M632 325 c0 -16 2 -22 5 -12 2 9 2 23 0 30 -3 6 -5 -1 -5 -18z"/>
<path d="M542 290 c0 -14 2 -19 5 -12 2 6 2 18 0 25 -3 6 -5 1 -5 -13z"/>
<path d="M324 345 c-3 -8 -4 -20 -2 -27 3 -7 7 -1 10 15 6 29 1 36 -8 12z"/>
</g>
</svg>
